<?xml version="1.0" encoding="UTF-8"?>
<svg id="Capa_2" data-name="Capa 2" xmlns="http://www.w3.org/2000/svg" viewBox="0 0 61.79 70.83">
  <defs>
    <style>
      .cls-1 {
        fill: #fff;
      }
    </style>
  </defs>
  <g id="Capa_1-2" data-name="Capa 1">
    <g>
      <path class="cls-1" d="m19.52,56.27c-.07-1.43.14-3.43-.13-5.43-.26-1.89-1.08-3.48-2.44-4.79-3.73-3.58-6-7.93-6.43-13.08-.58-7,1.73-12.96,7.15-17.5,11.01-9.24,27.42-4.99,32.41,8.5,2.78,7.53,1.32,14.52-3.88,20.67-.58.69-1.26,1.28-1.85,1.97-1.38,1.6-2.09,3.46-2.09,5.58,0,2.85,0,5.69,0,8.54-.01,5.73-4.37,10.09-10.1,10.09-2.05,0-4.11.14-6.11-.59-3.86-1.4-6.49-5.01-6.53-9.11-.01-1.42,0-2.85,0-4.84Zm14.57-10.38h0c0,2.09,0,4.18,0,6.27,0,.52.12.83.72.82,1.51-.03,3.02-.04,4.53-.03.57,0,.76-.25.75-.8,0-.61,0-1.22.09-1.82.39-2.51,1.65-4.54,3.43-6.31,4.46-4.45,6.25-9.82,5.22-16.05-2.02-12.2-15.57-18.9-26.42-13.01-5.98,3.25-9.3,8.43-9.69,15.23-.3,5.3,1.55,9.93,5.35,13.69,2.32,2.29,3.77,4.91,3.66,8.25-.02.61.24.82.83.82,1.36-.02,2.73-.05,4.09.01.84.04,1.1-.24,1.09-1.08-.04-3.98,0-7.96-.03-11.94,0-.85.2-1.2,1.11-1.16,1.39.07,2.79.06,4.18,0,.82-.03,1.13.22,1.11,1.08-.05,2-.02,4.01-.02,6.01Zm-3.23,14.9h0c2.73,0,5.46-.03,8.19,0,.68,0,.91-.22.92-.9,0-.76-.34-.92-1.01-.92-5.4.02-10.8.02-16.2,0-.71,0-1.06.15-1.05.96,0,.81.44.87,1.06.87,2.7-.02,5.4,0,8.1,0Zm-.04,4.01h0c2.29,0,4.58,0,6.87,0,.26,0,.53.02.78-.03.77-.12.97-.78.98-1.36.01-.68-.66-.4-1.02-.4-5.04-.02-10.09-.02-15.13,0-.39,0-1.01-.15-1.01.49,0,.59.28,1.14.97,1.27.25.05.52.03.78.03,2.26,0,4.52,0,6.78,0Zm0-9.53s0-.03,0-.04c-2.76,0-5.52.02-8.28-.01-.68,0-.87.27-.83.89.04.7.54.66,1,.66,2.7,0,5.4,0,8.1,0,2.73-.02,5.46-.06,8.19-.09.49,0,.94,0,.95-.7,0-.71-.46-.69-.94-.7-2.73,0-5.46,0-8.19,0Zm.94-8.19h0c0-1.68-.01-3.37,0-5.05,0-.59-.22-.81-.82-.84-.78-.04-.92.35-.92,1.01,0,3.25-.01,6.5-.05,9.75,0,.52-.14,1.03.63,1.03.64,0,1.2.02,1.17-.94-.06-1.65-.02-3.31-.02-4.96Zm-6.61,19.91c2.01,2.08,9.4,2.1,11.41.09-3.83-.06-7.5.12-11.41-.09Z"/>
      <path class="cls-1" d="m51.12,20.33c-.45-.01-.76-.23-.98-.61-.24-.41-.15-.79.13-1.13.35-.44.85-.69,1.33-.97,1.43-.83,2.86-1.65,4.3-2.46.78-.44,1.46-.33,1.81.29.33.58.09,1.23-.65,1.66-1.65.96-3.31,1.91-4.97,2.87-.3.17-.61.34-.97.35Z"/>
      <path class="cls-1" d="m57.43,29.76c.98,0,1.97-.02,2.95,0,.72.02,1.36.26,1.4,1.1.04.87-.61,1.17-1.32,1.15-2.02-.07-4.04.04-6.06.05-.75,0-1.2-.48-1.19-1.22.01-.78.53-1.1,1.28-1.1.98,0,1.97,0,2.95,0h0Z"/>
      <path class="cls-1" d="m4.33,29.76c.98,0,1.97-.02,2.95,0,.87.02,1.37.46,1.36,1.13,0,.68-.49,1.17-1.35,1.18-1.5,0-3.01-.08-4.51-.09-.66,0-1.32.21-1.98-.02-.57-.19-.85-.62-.8-1.19.05-.59.42-.94,1.02-1,.2-.02.4-.02.61-.02.9,0,1.8,0,2.69,0h0Z"/>
      <path class="cls-1" d="m5.11,46.95c-.59-.06-.91-.38-1.13-.81-.23-.45.02-.79.33-1.07.67-.61,1.51-.98,2.28-1.43,1.15-.67,2.33-1.3,3.49-1.96.69-.39,1.17-.12,1.53.47.37.6.11,1.08-.42,1.39-1.82,1.08-3.65,2.14-5.49,3.19-.2.11-.43.16-.59.22Z"/>
      <path class="cls-1" d="m46.92,5.16c-.06.18-.11.45-.24.67-1,1.73-2,3.46-3.03,5.18-.31.52-.74.92-1.44.64-.62-.25-.88-.89-.57-1.5.95-1.89,2.04-3.71,3.17-5.5.28-.45.67-.86,1.29-.61.46.18.74.54.81,1.13Z"/>
      <path class="cls-1" d="m20.31,10.71c-.01.4-.23.76-.67.95-.4.17-.82.11-1.12-.22-.27-.3-.52-.63-.72-.97-.84-1.42-1.66-2.85-2.47-4.29-.13-.22-.24-.47-.31-.71-.16-.54-.12-1.05.44-1.36.6-.33,1.09-.11,1.42.41.71,1.12,1.38,2.27,2.06,3.42.36.6.7,1.2,1.04,1.8.16.28.31.56.32.97Z"/>
      <path class="cls-1" d="m5.16,14.93c.15.06.37.14.57.25,1.65.91,3.29,1.82,4.94,2.73.33.18.64.4.87.71.33.44.26.87-.05,1.28-.31.4-.74.63-1.22.37-1.96-1.06-3.92-2.12-5.72-3.44-.38-.28-.7-.66-.47-1.19.19-.43.53-.68,1.09-.7Z"/>
      <path class="cls-1" d="m32.01,4.34c0,1.01.02,2.03,0,3.04-.02.86-.39,1.26-1.1,1.25-.71,0-1.09-.41-1.1-1.26-.01-2.03,0-4.06,0-6.09,0-.77.36-1.21,1.11-1.29.63-.06,1.06.47,1.08,1.29.02,1.01,0,2.03,0,3.04h0Z"/>
      <path class="cls-1" d="m56.55,46.88c-.16-.07-.38-.15-.58-.27-1.61-.93-3.22-1.85-4.81-2.8-1-.6-1.27-1.1-.95-1.68.41-.75.91-.78,2-.17,1.41.8,2.83,1.59,4.25,2.38.41.23.8.47,1.11.83.29.34.39.7.12,1.11-.26.39-.59.63-1.14.59Z"/>
    </g>
  </g>
</svg>