<?xml version="1.0" encoding="UTF-8"?>
<svg id="Capa_2" data-name="Capa 2" xmlns="http://www.w3.org/2000/svg" viewBox="0 0 67.49 67.5">
  <defs>
    <style>
      .cls-1 {
        fill: #fff;
      }
    </style>
  </defs>
  <g id="Capa_1-2" data-name="Capa 1">
    <g>
      <path class="cls-1" d="m67.49,2.73c-.15,6.34-1.48,12.42-4.04,18.21-2.35,5.31-5.51,10.1-9.5,14.33-2.36,2.5-5.04,4.61-7.83,6.6-.47.34-.67.69-.68,1.28-.06,4.52-1.25,8.68-4.14,12.23-1.26,1.55-2.84,2.75-4.58,3.74-.71.41-1.19.33-1.7-.21-.45-.48-.5-1.11-.08-1.74.67-.99,1.11-2.05,1.28-3.23.26-1.81-.27-3.41-1.24-4.9-.14-.21-.31-.4-.45-.61-.23-.39-.5-.56-.98-.37-.51.21-.9-.1-1.24-.44-1.01-1-2.02-2.01-3.02-3.01-3.07-3.07-6.13-6.14-9.21-9.2-.49-.48-.78-.98-.56-1.68.09-.3-.11-.47-.3-.64-1.7-1.56-3.71-2.04-5.95-1.75-1,.13-1.91.5-2.73,1.08-.81.57-1.4.58-1.95.06-.49-.48-.49-1.2-.03-1.98,2.52-4.37,6.42-6.78,11.22-7.9,1.55-.36,3.12-.54,4.71-.54.54,0,.85-.19,1.14-.62,1.83-2.73,3.96-5.22,6.3-7.52,4.32-4.23,9.34-7.41,14.83-9.89,4.49-2.02,9.2-3.19,14.07-3.77,1.75-.21,3.51-.3,5.28-.26.91.02,1.38.49,1.38,1.42,0,.43,0,.86,0,1.3Zm-32.53,28.48c.61,0,.97.26,1.22.7.25.46.2.91-.08,1.32-.16.24-.36.45-.57.65-2.09,2.06-4.1,4.19-6.26,6.18-.25.23-.39.43-.07.75,1.37,1.33,2.72,2.68,4.06,4.03.29.29.57.34.97.21,1.81-.62,3.55-1.41,5.24-2.28,6.26-3.19,11.53-7.6,15.82-13.14,3.2-4.15,5.58-8.76,7.25-13.73.14-.43.01-.61-.35-.8-4.19-2.21-7.43-5.39-9.71-9.55-.39-.71-.39-.7-1.16-.45-3.85,1.24-7.41,3.08-10.79,5.26-4.06,2.61-7.54,5.87-10.55,9.65-3.18,3.99-5.7,8.34-7.46,13.13-.19.51-.15.84.26,1.23,1.29,1.25,2.56,2.53,3.81,3.83.38.39.58.34.94-.02,2.12-2.16,4.27-4.29,6.4-6.43.32-.32.65-.58,1.04-.54ZM64.83,3.32c0-.68-.04-.72-.79-.62-.16.02-.32.05-.48.06-2.85.12-5.64.61-8.42,1.21-.31.07-.4.17-.24.47.32.63.69,1.22,1.11,1.79,1.83,2.53,4.04,4.63,6.74,6.19.61.35.68.32.84-.32.68-2.86,1.07-5.76,1.24-8.78Zm-25.86,50.47c.26.02.33-.18.43-.3.72-.88,1.3-1.85,1.77-2.89.88-1.9,1.33-3.9,1.55-5.97.02-.17.17-.37-.02-.5-.15-.1-.3.07-.44.13-1.71.84-3.41,1.69-5.13,2.53-.29.14-.32.25-.12.52.7.93,1.22,1.94,1.57,3.05.35,1.11.44,2.25.38,3.43ZM13.71,28.49c.88.03,1.72.04,2.55.22,1.43.31,2.69.99,3.91,1.77.24.15.45.33.61-.1.63-1.67,1.49-3.23,2.35-4.79.14-.25.5-.54.31-.79-.18-.24-.57,0-.87.04-2.22.31-4.38.81-6.37,1.9-.89.49-1.76,1.02-2.49,1.76Z"/>
      <path class="cls-1" d="m24.33,54.74c-.27.01-.58-.23-.87-.51-2.64-2.6-5.28-5.21-7.91-7.81-.73-.72-1.46-1.44-2.18-2.18-.92-.93-.8-1.86.36-2.48,1.54-.82,3.1-1.61,4.65-2.39.8-.4,1.21-.3,1.83.32,2.44,2.45,4.88,4.89,7.33,7.33,1.05,1.04,1.1,1.38.39,2.68-.77,1.42-1.53,2.85-2.3,4.28-.25.46-.62.74-1.33.76Zm-.27-3.61c.19-.03.22-.19.28-.31.28-.56.53-1.15.85-1.68.23-.37.15-.6-.13-.88-1.98-1.96-3.95-3.94-5.92-5.91-.2-.2-.37-.23-.62-.1-.58.32-1.17.64-1.77.92-.39.19-.36.35-.09.63,2.37,2.36,4.74,4.73,7.1,7.09.09.09.19.16.29.24Z"/>
      <path class="cls-1" d="m1.36,67.5c-.61.03-1.02-.26-1.25-.78-.25-.57-.08-1.08.36-1.52,2.05-2.04,4.1-4.09,6.15-6.14,2.32-2.31,4.63-4.63,6.95-6.94.5-.5,1.03-.58,1.57-.3.48.25.77.81.7,1.35-.06.44-.33.75-.63,1.04-1.44,1.44-2.87,2.88-4.31,4.31-2.79,2.79-5.57,5.57-8.36,8.36-.33.33-.67.67-1.19.62Z"/>
      <path class="cls-1" d="m.45,56.89c0-.43.16-.77.44-1.05,2.93-2.92,5.86-5.84,8.79-8.75.16-.16.35-.31.54-.44.5-.32,1.19-.23,1.58.19.43.46.48,1.13.11,1.63-.12.16-.26.3-.4.44-2.81,2.81-5.62,5.63-8.43,8.44-.22.22-.44.43-.69.6-.4.28-.84.32-1.27.06-.42-.26-.68-.64-.69-1.11Z"/>
      <path class="cls-1" d="m10.72,67.06c-1.01,0-1.62-1.03-1.13-1.88.13-.21.29-.41.47-.59,2.88-2.89,5.77-5.78,8.66-8.67.4-.4.85-.68,1.44-.51.49.15.78.49.89.99.11.49-.08.89-.41,1.22-2.32,2.34-4.63,4.68-6.95,7.02-.66.66-1.34,1.31-2.01,1.96-.28.27-.58.48-.97.45Z"/>
      <path class="cls-1" d="m44.67,17.41c2.97,0,5.51,2.53,5.49,5.46-.02,3.08-2.47,5.52-5.53,5.52-3.04,0-5.5-2.45-5.5-5.48,0-3.06,2.46-5.5,5.54-5.5Zm2.79,5.51c.02-1.56-1.23-2.85-2.77-2.86-1.57-.01-2.88,1.25-2.9,2.81-.02,1.55,1.26,2.84,2.85,2.85,1.54.02,2.8-1.24,2.82-2.81Z"/>
    </g>
  </g>
</svg>