<svg id="logoTitle" data-name="logo and title" xmlns="http://www.w3.org/2000/svg" viewBox="0 0 57.58 70.93">
  <defs>
    <style>
      .logoTitle{fill:#BAA360;}
    </style>
  </defs>
  <g>
  
    <path class="logoTitle" d="m0,70.89v-6.45h2.75c1.23,0,1.84.52,1.84,1.55,0,.84-.60,1.46-1.80,1.86l2.21,3.04h-1.10l-2.05-2.9v-.54c1.23-.2,1.85-.67,1.85-1.42,0-.6-.34-.89-1.03-.89H.83v5.76h-.83Z"/>
    <path class="logoTitle" d="m10.1,64.44v.68h-3.38v2.17h3.22v.68h-3.22v2.25h3.45v.68h-4.29v-6.45h4.22Z"/>
    <path class="logoTitle" d="m11.65,70.89h-.87l2.74-6.45h.93l2.75,6.45h-.92l-.83-2.03h-2.13l.23-.68h1.62l-1.2-2.92-2.3,5.63Z"/>
    <path class="logoTitle" d="m18.91,64.44v5.77h3.37v.68h-4.21v-6.45h.83Z"/>
    <path class="logoTitle" d="m29.75,64.44v.68h-3.38v2.17h3.23v.68h-3.23v2.25h3.45v.68h-4.29v-6.45h4.22Z"/>
    <path class="logoTitle" d="m30.99,70.66v-.77c.68.24,1.41.36,2.19.36,1.11,0,1.66-.41,1.66-1.22,0-.69-.41-1.04-1.23-1.04h-.83c-1.35,0-2.03-.59-2.03-1.76,0-1.23.87-1.85,2.59-1.85.75,0,1.45.09,2.10.27v.77c-.65-.24-1.35-.36-2.10-.36-1.17,0-1.76.39-1.76,1.17,0,.69.40,1.04,1.19,1.04h.83c1.37,0,2.06.59,2.06,1.76,0,1.26-.83,1.89-2.50,1.89-.79,0-1.52-.09-2.19-.27Z"/>
    <path class="logoTitle" d="m41.25,64.44v.68h-2.03v5.77h-.83v-5.77h-2.03v-.68h4.89Z"/>
    <path class="logoTitle" d="m41.78,70.89h-.87l2.74-6.45h.92l2.75,6.45h-.92l-.83-2.03h-2.13l.23-.68h1.62l-1.2-2.92-2.3,5.63Z"/>
    <path class="logoTitle" d="m51.88,64.44v.68h-2.03v5.77h-.83v-5.77h-2.03v-.68h4.89Z"/>
    <path class="logoTitle" d="m57.09,64.44v.68h-3.38v2.17h3.22v.68h-3.22v2.25h3.45v.68h-4.29v-6.45h4.22Z"/>
  </g>
  <polygon class="logoTitle" points="57.58 57.3 16.08 57.3 16.08 29.46 39.91 29.46 39.91 46.62 34.91 46.62 34.91 34.46 21.08 34.46 21.08 52.3 52.58 52.3 52.58 24.84 29.08 6.36 17.83 15.21 17.83 5.19 11.08 5.19 11.08 20.51 5.58 24.84 5.58 57.3 .58 57.3 .58 22.41 6.08 18.09 6.08 .19 22.83 .19 22.83 4.91 29.08 0 57.58 22.41 57.58 57.3"/>
</svg>
